<?xml version="1.0" encoding="UTF-8"?><svg xmlns="http://www.w3.org/2000/svg" xmlns:xlink="http://www.w3.org/1999/xlink" height="495.9" preserveAspectRatio="xMidYMid meet" version="1.0" viewBox="-10.4 -2.3 279.3 495.9" width="279.3" zoomAndPan="magnify"><g id="change1_1"><path d="M196.8,133.8c0,0,26.4-47.6,46.6-46.2s19.8,38.6-7.3,87.7S160.9,188.5,196.8,133.8z" fill="#CDF9F0"/></g><g id="change2_2"><path d="M206.1,200.6c-0.1,0-0.1,0-0.1,0c-8.4-0.1-15.7-4.7-20-12.7c-7.6-14.2-4.1-34.8,9.2-55.1 c1.5-2.8,27.4-48.7,48.5-47.1c5.6,0.4,10,3.3,12.7,8.3c8.1,15,0.9,47.3-18.5,82.4C229.4,191.8,217.8,200.6,206.1,200.6z M242.6,89.6 c-15.5,0-36.9,32.4-44,45.2c0,0-0.1,0.1-0.1,0.1c-12.6,19.1-16,38.2-9.1,51.1c3.6,6.7,9.6,10.6,16.5,10.6c10.2,0.1,20.6-8,28.4-22.2 c18.7-33.9,25.9-64.7,18.5-78.5c-2.1-3.8-5.3-6-9.5-6.3C243.1,89.6,242.8,89.6,242.6,89.6z M196.8,133.8L196.8,133.8L196.8,133.8z" fill="#231F20"/></g><g id="change3_1"><path d="M238.9,170.5c-13.4,27.9-18.1,59.3-12.8,89.8c0.2,0.9,0.3,1.8,0.5,2.7c4.2,22.1-22.5,28-46.2,22.2 c-6.8-1.7-13.8-2.6-20.7-3.1c-4.4-0.3-8.8-1.5-13-3.5l0,0c-18.1-8.7-25.7-30.4-17-48.5c13.5-13.3,27.1-26.5,40.6-39.8 c-6-48.1,10.6-86.2,35.7-94.3c5.1-1.6,14-4.6,27.8,1.6l0,0c18.1,8.7,25.7,30.4,17,48.5L238.9,170.5z" fill="#EFB1B1"/></g><g id="change2_3"><path d="M197.4,289.3c-5.5,0-11.5-0.7-17.5-2.2c-5.9-1.5-12.4-2.4-20.4-3c-4.8-0.4-9.4-1.6-13.8-3.7 c-9.2-4.4-16.2-12.2-19.6-21.9c-3.4-9.7-2.8-20.1,1.6-29.3l0.2-0.3l40.2-39.3c-5.5-46.7,10.1-86.7,37.2-95.5l0.1,0 c5.2-1.7,14.8-4.8,29.1,1.7c19.1,9.2,27.2,32.2,18,51.2h0l-11.8,24.5c-13.5,28-17.9,58.7-12.7,88.6c0.2,0.9,0.3,1.7,0.5,2.6 c1.4,7.5-0.4,14-5.3,18.6C217.6,286.5,208.3,289.3,197.4,289.3z M131.2,231.2c-3.8,8.2-4.3,17.4-1.3,25.9c3,8.7,9.3,15.6,17.5,19.6 c3.9,1.9,8,3,12.3,3.3c8.2,0.6,14.9,1.6,21.1,3.1c16.3,4,32.3,2.1,39.6-4.9c3.9-3.7,5.3-8.8,4.2-15c-0.2-0.9-0.3-1.8-0.5-2.7 c-5.4-30.7-0.9-62.2,13-91l11.8-24.5c8.2-17.1,1-37.7-16.1-45.9c-12.9-5.8-21.2-3.1-26.2-1.5l-0.1,0c-25.5,8.2-39.9,47-34.3,92.2 l0.1,1L131.2,231.2z" fill="#231F20"/></g><g id="change3_2"><path d="M225.7,394.6c-42.5,67.2-112.7,99-157,71c-19.9-12.6-31.1-35.1-33.6-62.3c-10.6-6.8-22-19.7-29.2-44 c-16.3-54.8,23-60,23-60l-2.6-3.5c-11.3-15.2-8.1-36.7,7.1-48l0,0c14.1-10.4,33.5-8.5,45.3,3.9l-2.9-3.8c-11.3-15.2-8.1-36.7,7.1-48 l0,0c15.2-11.3,36.7-8.1,48,7.1l11.5,15.6c0.1,0,0.2-0.1,0.3-0.1l-65.6-88.5c-11.3-15.2-8.1-36.7,7.1-48l0,0 c15.2-11.3,36.7-8.1,48,7.1c0,0,106.5,143.9,107.3,145.2C266.2,273.5,261.8,337.6,225.7,394.6z" fill="#EFB1B1"/></g><g id="change2_4"><path d="M105.4,477.8c-13.9,0-26.7-3.5-37.7-10.5C48.3,455,36,432.7,33.2,404.5c-13.2-8.8-23-23.8-29.2-44.5 c-6.4-21.4-5.3-38,3.3-49.5c5.9-7.9,13.7-11.1,18.2-12.4l-0.8-1c-5.8-7.8-8.2-17.4-6.8-27c1.4-9.6,6.5-18.1,14.3-23.8 c11.4-8.5,26.4-9.3,38.5-3c-7.4-15.4-3.1-34.4,11.1-45c11.5-8.5,26.4-9.2,38.3-3.1l-44.5-60c-11.9-16.1-8.5-38.9,7.5-50.8 c16.1-11.9,38.9-8.5,50.8,7.5c24.5,33.1,103.2,139.5,107.3,145.2l0,0c27.7,36.7,22,102-13.8,158.6c-20.7,32.8-48.7,58.4-78.7,71.9 C133.7,474.4,119.1,477.8,105.4,477.8z M29.2,301.3c-0.3,0-12.6,1.9-19.8,13.1c-6.7,10.4-7.2,25.3-1.5,44.3 c6,20.2,15.6,34.6,28.3,42.8c0.5,0.3,0.9,0.9,0.9,1.5c2.5,27.4,14.1,49,32.7,60.8c20.8,13.2,48.2,13.2,77.3,0 c29.3-13.2,56.6-38.3,77-70.4c34.9-55.3,40.7-118.6,14-154.1c0,0-0.1-0.1-0.1-0.2c-1.8-2.7-70.8-96-107.2-145.1 c-10.6-14.3-30.9-17.3-45.2-6.7c-14.3,10.6-17.3,30.9-6.7,45.2l65.6,88.5c0.4,0.5,0.5,1.1,0.3,1.7c-0.2,0.6-0.6,1.1-1.1,1.3 l-0.3,0.1c-0.9,0.4-1.9,0.1-2.4-0.6l-11.5-15.6c-10.6-14.3-30.9-17.3-45.2-6.7c-14.3,10.6-17.3,30.9-6.7,45.2l2.9,3.8 c0.6,0.8,0.5,2-0.3,2.7c-0.8,0.7-2,0.6-2.7-0.2c-11.2-11.8-29.5-13.3-42.6-3.6c-6.9,5.1-11.5,12.7-12.7,21.2s0.9,17.1,6,24l2.6,3.5 c0.4,0.6,0.5,1.4,0.2,2.1C30.4,300.8,29.8,301.2,29.2,301.3z" fill="#231F20"/></g><g id="change2_5"><path d="M40.8,380.3c0,0.1,0,0.1,0,0.2c0,0.1,0,0.1,0,0.2c0,0.1,0,0.1,0,0.2c0,0.1,0,0.1-0.1,0.2c0,0,0,0,0,0 c-5.8,12.8-3.5,21.6-3.5,21.7c0.3,1.1-0.4,2.2-1.4,2.4c-0.2,0-0.3,0.1-0.5,0.1c-0.9,0-1.7-0.6-1.9-1.5c-0.1-0.4-2.4-9.5,3.1-22.8 C23.8,372.1,8.5,353,7.8,352.1c-0.7-0.9-0.5-2.1,0.3-2.8c0.9-0.7,2.1-0.5,2.8,0.3c0.2,0.2,16.8,21,28.9,29c0,0,0,0,0,0 c0.1,0,0.1,0.1,0.2,0.1c0,0,0.1,0.1,0.1,0.1c0,0,0.1,0.1,0.1,0.2c0,0.1,0.1,0.1,0.1,0.2c0,0.1,0.1,0.1,0.1,0.2 c0,0.1,0.1,0.1,0.1,0.2c0,0.1,0,0.1,0.1,0.2c0,0.1,0,0.1,0.1,0.2c0,0.1,0,0.1,0,0.2C40.8,380.2,40.8,380.3,40.8,380.3z M28.8,297.3 c-1.1,0-2,1-1.9,2.1c0,1.1,1,1.9,2.1,1.9c26.3-1.1,45.8,27,46,27.3c0.4,0.6,1,0.9,1.7,0.9c0.4,0,0.8-0.1,1.1-0.3 c0.9-0.6,1.1-1.9,0.5-2.8C77.5,325.2,57.4,296.1,28.8,297.3z M118.3,291.3c-3.9-4.7-38.4-46.4-51.6-49.9c-1.1-0.3-2.2,0.4-2.4,1.4 c-0.3,1.1,0.4,2.2,1.4,2.4c10.1,2.7,39.2,35.9,49.5,48.5c0.4,0.5,1,0.7,1.5,0.7c0.4,0,0.9-0.1,1.3-0.5 C118.9,293.4,119,292.2,118.3,291.3z" fill="#231F20"/></g><g id="change3_3"><path d="M121.7,198.4c0,0,23.9,16,44.3,62.3" fill="#EFB1B1"/></g><g id="change2_6"><path d="M166.1,262.7c-0.8,0-1.5-0.4-1.8-1.2c-19.9-45.2-43.4-61.3-43.6-61.4c-0.9-0.6-1.2-1.9-0.5-2.8 c0.6-0.9,1.9-1.2,2.8-0.6c1,0.7,24.6,16.8,45.1,63.2c0.4,1,0,2.2-1,2.6C166.6,262.6,166.3,262.7,166.1,262.7z" fill="#231F20"/></g><g><g id="change4_2"><path d="M160,256c-1.3,0-2.6-0.3-3.8-1c-3.9-2.1-5.3-7-3.2-10.8c22.2-41.1,63-43.4,64.8-43.5 c4.5-0.2,8.2,3.2,8.4,7.6c0.2,4.4-3.2,8.1-7.6,8.4c-1.5,0.1-33.7,2.2-51.4,35.1C165.6,254.4,162.9,256,160,256z" fill="#E27A52"/></g><g id="change2_11"><path d="M160,258c-1.6,0-3.3-0.4-4.8-1.2c-2.3-1.3-4.1-3.4-4.8-5.9c-0.8-2.6-0.5-5.3,0.8-7.6 c22.8-42.1,64.7-44.5,66.4-44.5c2.7-0.1,5.2,0.8,7.2,2.6c2,1.8,3.1,4.3,3.2,6.9c0.2,5.5-4,10.2-9.5,10.4 c-1.3,0.1-32.5,2.1-49.8,34.1C167.1,255.9,163.7,258,160,258z M218.1,202.7c-0.1,0-0.2,0-0.3,0c-1.7,0.1-41.4,2.3-63.1,42.4 c-0.8,1.4-0.9,3-0.5,4.6c0.5,1.5,1.5,2.8,2.9,3.6c0.9,0.5,1.8,0.7,2.8,0.7c2.2,0,4.2-1.2,5.3-3.1c18.3-33.9,51.7-36.1,53.1-36.2 c3.3-0.2,5.9-3,5.7-6.3c-0.1-1.6-0.8-3.1-1.9-4.2C221.1,203.2,219.6,202.7,218.1,202.7z" fill="#231F20"/></g></g><g id="change1_2"><path d="M113.7,268.1c0,5.2-4.2,9.4-9.4,9.4s-9.4-4.2-9.4-9.4s4.2-9.4,9.4-9.4S113.7,262.9,113.7,268.1z M143.9,224.3c-5.2,0-9.4,4.2-9.4,9.4s4.2,9.4,9.4,9.4s9.4-4.2,9.4-9.4S149.1,224.3,143.9,224.3z" fill="#CDF9F0"/></g><g id="change2_7"><path d="M104.3,279.6c-6.3,0-11.4-5.1-11.4-11.4c0-6.3,5.1-11.4,11.4-11.4s11.4,5.1,11.4,11.4 C115.7,274.5,110.6,279.6,104.3,279.6z M104.3,260.7c-4.1,0-7.4,3.3-7.4,7.4c0,4.1,3.3,7.4,7.4,7.4s7.4-3.3,7.4-7.4 C111.7,264,108.4,260.7,104.3,260.7z M143.9,245.2c-6.3,0-11.4-5.1-11.4-11.4c0-6.3,5.1-11.4,11.4-11.4c6.3,0,11.4,5.1,11.4,11.4 C155.3,240.1,150.2,245.2,143.9,245.2z M143.9,226.3c-4.1,0-7.4,3.3-7.4,7.4c0,4.1,3.3,7.4,7.4,7.4c4.1,0,7.4-3.3,7.4-7.4 C151.3,229.6,148,226.3,143.9,226.3z" fill="#231F20"/></g><g><g id="change4_1"><path d="M138.1,217c-0.4,0-0.8-0.1-1.3-0.2c-1.8-0.7-2.7-2.7-2-4.5c14.2-37,56.5-40.4,58.3-40.6 c1.9-0.1,3.6,1.3,3.7,3.2c0.1,1.9-1.3,3.6-3.2,3.7l0,0c-0.4,0-39.7,3.3-52.3,36.1C140.8,216.1,139.5,217,138.1,217z" fill="#E27A52"/></g><g id="change2_1"><path d="M138.1,219c-0.7,0-1.3-0.1-2-0.4c-1.4-0.5-2.5-1.6-3.1-2.9c-0.6-1.3-0.6-2.8-0.1-4.2 c14.7-38.1,58.2-41.7,60.1-41.8c1.5-0.1,2.9,0.4,4,1.3c1.1,1,1.8,2.3,1.9,3.8c0.2,3-2.1,5.7-5.1,5.9c-0.4,0-38.5,3.4-50.6,34.8 C142.4,217.5,140.4,219,138.1,219z M193.4,173.6c0,0-0.1,0-0.1,0c-1.7,0.1-42.8,3.5-56.6,39.3c-0.1,0.4-0.1,0.8,0,1.1 c0.2,0.4,0.5,0.6,0.8,0.8c0.8,0.3,1.7-0.1,1.9-0.9c13.1-34,53.6-37.3,54-37.4c0.8-0.1,1.4-0.8,1.4-1.6c0-0.4-0.2-0.8-0.5-1 C194.1,173.8,193.8,173.6,193.4,173.6z" fill="#231F20"/></g></g><g id="change5_1"><path d="M209.3,60.7c-14.3,18.2-33.7,29.2-41.3,33c-2,1-4.4,0.8-6.3-0.5c-6.9-5-24.2-19-35.4-39.3 C112.1,28,122.4,5.8,141.7,2.4S171,18.6,171,18.6S184,0.9,202.5,7.4S227.5,37.5,209.3,60.7z M168.8,168.7c-5.2,1.4-5.5,7.4-5.5,7.4 s-5.3-2.9-9.2,0.8s-2.8,10.4,4.5,14.1c5.7,2.9,11.8,3.4,14.1,3.5c0.6,0,1.2-0.3,1.5-0.8c1.1-2.1,3.9-7.5,4.3-13.9 C179.2,171.7,174,167.3,168.8,168.7z" fill="#FF6EA2"/></g><g id="change2_8"><path d="M165.2,96.4c-1.7,0-3.3-0.5-4.7-1.5c-7-5.1-24.6-19.3-36-40c-7.6-13.8-9-28-3.7-38.9 c3.9-8.2,11.4-13.9,20.5-15.5c16.2-2.8,26.3,9.4,29.9,14.8c4.5-4.8,16.4-15.2,31.9-9.7l0,0c8.7,3.1,15.1,9.8,17.7,18.6 c3.4,11.6-0.3,25.4-10,37.8c-14.6,18.5-34.2,29.7-42,33.6C167.7,96.1,166.5,96.4,165.2,96.4z M146.1,4c-1.3,0-2.7,0.1-4.1,0.4 c-7.9,1.4-14.2,6.1-17.6,13.3c-4.7,9.7-3.3,22.6,3.6,35.3c11,20,28,33.7,34.8,38.7c1.2,0.9,2.8,1,4.2,0.3 c7.5-3.8,26.6-14.6,40.6-32.5c8.9-11.4,12.3-23.9,9.3-34.2c-2.2-7.6-7.6-13.3-15.2-16c-16.8-5.9-28.8,9.8-29.3,10.5 c-0.4,0.6-1.1,0.9-1.8,0.8c-0.7-0.1-1.3-0.5-1.6-1.1C168.8,18.8,161,4,146.1,4z M172.8,196.6c0,0-0.1,0-0.1,0 c-2.5-0.1-8.9-0.6-15-3.7c-4.3-2.2-7.1-5.6-7.6-9.4c-0.4-3,0.5-5.9,2.7-8c3-3,6.7-2.7,9-2.1c0.7-2.3,2.4-5.6,6.5-6.7l0,0 c2.9-0.8,5.9-0.1,8.2,1.8c2.9,2.4,4.4,6.6,4.1,11.4c-0.5,6.8-3.4,12.6-4.6,14.7C175.4,195.9,174.1,196.6,172.8,196.6z M159,177.1 c-1.1,0-2.4,0.3-3.4,1.4c-1.2,1.2-1.8,2.8-1.5,4.5c0.4,2.5,2.4,4.8,5.5,6.4c5.2,2.6,10.7,3.2,13.1,3.3c1.1-2.1,3.6-7.1,4-12.9 c0.3-3.5-0.7-6.4-2.6-8c-1.3-1.1-3-1.4-4.6-1l0,0c-3.7,1-4,5.4-4,5.6c0,0.7-0.4,1.3-1,1.7c-0.6,0.3-1.3,0.3-1.9,0 C162.3,177.8,160.8,177.1,159,177.1z M168.8,168.7L168.8,168.7L168.8,168.7z" fill="#231F20"/></g><g id="change1_3"><path d="M142.7,105.6c9.5,13.3-0.3,31.7-16.7,31.2c-0.3,0-0.5,0-0.8,0c-26.4-1.3-53.9-45.9-45.7-61 C87,62,114.8,66.8,142.7,105.6z" fill="#CDF9F0"/></g><g id="change2_9"><path d="M126.7,138.8c-0.2,0-0.5,0-0.7,0c-0.3,0-0.5,0-0.8,0c-16.4-0.8-32.7-17.1-41.6-32.9 c-7.2-12.8-9.4-24.4-5.8-31c2.6-4.8,7.4-7.7,13.5-8c12.1-0.7,32.4,8.7,53.1,37.7l0,0c4.9,6.8,5.4,15.5,1.5,22.9 C142,134.5,134.7,138.8,126.7,138.8z M92.6,70.8c-0.4,0-0.8,0-1.2,0c-4.7,0.3-8.3,2.4-10.2,5.9c-2.8,5.2-0.6,15.9,5.8,27.1 c8.4,14.9,23.4,30.2,38.3,30.9c0.3,0,0.5,0,0.8,0c6.9,0.2,13-3.3,16.2-9.4c3.3-6.1,2.8-13.1-1.2-18.7l0,0 C122,80.2,103.8,70.8,92.6,70.8z" fill="#231F20"/></g><g id="change1_4"><path d="M125.2,254c0,5.2-4.2,9.4-9.4,9.4c-5.2,0-9.4-4.2-9.4-9.4c0-5.2,4.2-9.4,9.4-9.4 C120.9,244.5,125.2,248.7,125.2,254z M130.5,232.4c-5.2,0-9.4,4.2-9.4,9.4c0,5.2,4.2,9.4,9.4,9.4s9.4-4.2,9.4-9.4 C139.9,236.6,135.7,232.4,130.5,232.4z" fill="#CDF9F0"/></g><g id="change2_10"><path d="M115.7,265.4c-6.3,0-11.4-5.1-11.4-11.4c0-6.3,5.1-11.4,11.4-11.4s11.4,5.1,11.4,11.4 C127.2,260.3,122,265.4,115.7,265.4z M115.7,246.5c-4.1,0-7.4,3.3-7.4,7.4c0,4.1,3.3,7.4,7.4,7.4s7.4-3.3,7.4-7.4 C123.2,249.9,119.8,246.5,115.7,246.5z M130.5,253.3c-6.3,0-11.4-5.1-11.4-11.4s5.1-11.4,11.4-11.4s11.4,5.1,11.4,11.4 S136.8,253.3,130.5,253.3z M130.5,234.4c-4.1,0-7.4,3.3-7.4,7.4c0,4.1,3.3,7.4,7.4,7.4s7.4-3.3,7.4-7.4 C137.9,237.7,134.6,234.4,130.5,234.4z" fill="#231F20"/></g></svg>